<svg width="86" height="88" viewBox="0 0 86 88" fill="none" xmlns="http://www.w3.org/2000/svg">
<rect width="86" height="88" rx="43" fill="white"/>
<path d="M44.1237 50.0194L19.5369 34.3728C18.2658 33.5321 17.3756 32.226 17.0581 30.7355C16.7407 29.245 17.0212 27.6895 17.8394 26.4038C18.6576 25.1182 19.948 24.2053 21.4327 23.8617C22.9173 23.5181 24.4776 23.7713 25.7774 24.5669L43.8155 36.0452L60.0112 24.7079C61.2748 23.8517 62.8245 23.5268 64.3256 23.8035C65.8267 24.0802 67.1587 24.9363 68.034 26.1868C68.9092 27.4374 69.2574 28.982 69.0033 30.4871C68.7493 31.9922 67.9134 33.3369 66.6762 34.2309L44.1237 50.0194Z" fill="#EA4435"/>
<path d="M65.2814 64.3451H57.5314V29.4701C57.5314 27.9285 58.1438 26.4501 59.2339 25.3601C60.3239 24.27 61.8024 23.6576 63.3439 23.6576V23.6576C64.8855 23.6576 66.3639 24.27 67.454 25.3601C68.5441 26.4501 69.1564 27.9285 69.1564 29.4701V60.4701C69.1564 61.4978 68.7482 62.4835 68.0215 63.2102C67.2948 63.9369 66.3092 64.3451 65.2814 64.3451V64.3451Z" fill="#00AC47"/>
<path d="M69.0714 28.6271C69.0543 28.5108 69.0557 28.3921 69.0315 28.276C68.9943 28.0982 68.9251 27.9339 68.872 27.7622C68.8205 27.5657 68.7586 27.3721 68.6864 27.1823C68.6476 27.0903 68.588 27.0095 68.544 26.92C68.4234 26.6617 68.2839 26.4127 68.1267 26.175C68.0492 26.0624 67.9523 25.9665 67.8666 25.86C67.7197 25.6663 67.5608 25.4819 67.391 25.308C67.2621 25.1826 67.1153 25.0778 66.9752 24.9648C66.8263 24.8372 66.6711 24.7171 66.5102 24.605C66.3566 24.5047 66.1884 24.4274 66.0258 24.3417C65.8546 24.2524 65.6868 24.1552 65.5085 24.0839C65.3363 24.0145 65.1526 23.9703 64.9726 23.9174C64.7926 23.8645 64.6136 23.8012 64.4288 23.7669C64.1998 23.7301 63.9688 23.7068 63.7371 23.6971C63.59 23.6869 63.4443 23.6611 63.2967 23.6623C63.0226 23.6702 62.7494 23.6978 62.4793 23.7446C62.3702 23.7609 62.2603 23.7595 62.152 23.782C61.7864 23.8937 61.4218 24.0087 61.0583 24.1269C60.9585 24.1695 60.8711 24.2328 60.7745 24.2809C59.7906 24.74 58.9607 25.4742 58.3852 26.3949C57.8096 27.3155 57.5131 28.3832 57.5313 29.4687V40.6326L66.6762 34.2305C67.5743 33.6278 68.2784 32.7778 68.7034 31.7832C69.1284 30.7887 69.256 29.6923 69.0708 28.6267L69.0714 28.6271Z" fill="#FFBA00"/>
<path d="M22.6562 23.6562C24.1978 23.6562 25.6763 24.2686 26.7663 25.3587C27.8564 26.4487 28.4688 27.9272 28.4688 29.4688V64.3438H20.7188C19.691 64.3438 18.7054 63.9355 17.9787 63.2088C17.252 62.4821 16.8438 61.4965 16.8438 60.4688V29.4688C16.8438 27.9272 17.4561 26.4487 18.5462 25.3587C19.6362 24.2686 21.1147 23.6562 22.6562 23.6562V23.6562Z" fill="#4285F4"/>
<path d="M16.9288 28.6271C16.9459 28.5109 16.9445 28.3921 16.9687 28.276C17.0059 28.0982 17.0751 27.9339 17.1282 27.7622C17.1796 27.5658 17.2416 27.3723 17.3138 27.1825C17.3525 27.0905 17.4122 27.0097 17.4564 26.9202C17.5769 26.6618 17.7164 26.4127 17.8737 26.175C17.9512 26.0624 18.0481 25.9665 18.1337 25.86C18.2806 25.6663 18.4394 25.4819 18.6092 25.308C18.738 25.1826 18.8849 25.0778 19.0252 24.9648C19.174 24.8371 19.3292 24.7171 19.4902 24.605C19.6438 24.5047 19.812 24.4274 19.9746 24.3417C20.1425 24.2467 20.3152 24.1602 20.4919 24.0825C20.6643 24.0131 20.848 23.969 21.0278 23.9161C21.2076 23.8632 21.3868 23.7998 21.5716 23.7655C21.8006 23.7288 22.0316 23.7055 22.2633 23.6958C22.4106 23.6855 22.5561 23.6597 22.7037 23.6609C22.9778 23.6689 23.251 23.6964 23.5212 23.7432C23.6302 23.7595 23.7401 23.7582 23.8486 23.7806C24.0361 23.8284 24.2211 23.8859 24.4027 23.9527C24.5854 24.0012 24.7654 24.0589 24.9423 24.1255C25.0419 24.1681 25.1293 24.2315 25.2262 24.2795C25.4773 24.3975 25.7196 24.5335 25.9512 24.6864C26.7274 25.2194 27.3622 25.9333 27.8009 26.7665C28.2395 27.5997 28.4687 28.5272 28.4688 29.4688V40.6326L19.3238 34.2309C18.4259 33.6281 17.7219 32.778 17.2968 31.7835C16.8718 30.789 16.744 29.6927 16.9288 28.6271V28.6271Z" fill="#C52528"/>
</svg>
